<svg width="110" height="36" viewBox="0 0 110 36" fill="none" xmlns="http://www.w3.org/2000/svg">
<rect x="2" y="3" width="107" height="30" rx="15" stroke="#F5F5F5" stroke-width="2"/>
<path d="M38.9787 23L39.9134 20.3054H43.8906L44.8203 23H46.451L42.7869 12.8182H41.0121L37.348 23H38.9787ZM40.3608 19.0128L41.8622 14.6676H41.9418L43.4432 19.0128H40.3608ZM47.802 23H49.2885V19.9474H50.253L52.5549 23H54.3993L51.4064 19.0774L54.3645 15.3636H52.525L50.0044 18.5653H49.2885V15.3636H47.802V23ZM55.554 23H57.0405V19.9474H58.005L60.3068 23H62.1513L59.1584 19.0774L62.1165 15.3636H60.277L57.7564 18.5653H57.0405V15.3636H55.554V23ZM65.5282 23.169C66.791 23.169 67.502 22.5277 67.7853 21.956H67.845V23H69.2967V17.929C69.2967 15.7067 67.5467 15.2642 66.3336 15.2642C64.9515 15.2642 63.6788 15.821 63.1816 17.2131L64.5787 17.5312C64.7974 16.9893 65.3542 16.4673 66.3535 16.4673C67.313 16.4673 67.8052 16.9695 67.8052 17.8345V17.8693C67.8052 18.4112 67.2484 18.4013 65.8762 18.5604C64.4295 18.7294 62.948 19.1072 62.948 20.8423C62.948 22.3438 64.0765 23.169 65.5282 23.169ZM65.8514 21.9759C65.0112 21.9759 64.4047 21.598 64.4047 20.8622C64.4047 20.0668 65.1106 19.7834 65.9707 19.669C66.4529 19.6044 67.5964 19.4751 67.8102 19.2614V20.2457C67.8102 21.1506 67.0893 21.9759 65.8514 21.9759ZM71.9428 25.8438C73.1708 25.8438 73.9513 25.2024 74.3888 24.0192L77.5458 15.3786L75.94 15.3636L74.006 21.2898H73.9265L71.9925 15.3636H70.4016L73.1957 23.0994L73.0117 23.6065C72.6339 24.5959 72.1019 24.6854 71.2866 24.4616L70.9286 25.6797C71.1076 25.7642 71.4954 25.8438 71.9428 25.8438ZM80.4032 15.3636H78.9466V23H80.4032V19.8281H83.7093V23H85.161V15.3636H83.7093V18.5405H80.4032V15.3636ZM86.2026 16.6463H88.7033V23H90.155V16.6463H92.6458V15.3636H86.2026V16.6463Z" fill="white"/>
<path fill-rule="evenodd" clip-rule="evenodd" d="M25 15C25 16.1046 24.1046 17 23 17C21.8954 17 21 16.1046 21 15C21 13.8954 21.8954 13 23 13C24.1046 13 25 13.8954 25 15ZM27 15C27 17.2091 25.2091 19 23 19C20.7909 19 19 17.2091 19 15C19 12.7909 20.7909 11 23 11C25.2091 11 27 12.7909 27 15ZM21 20C18.7909 20 17 21.7909 17 24V25H19V24C19 22.8954 19.8954 22 21 22H25C26.1046 22 27 22.8954 27 24V25H29V24C29 21.7909 27.2091 20 25 20H21Z" fill="white"/>
</svg>
